<?xml version="1.0" encoding="utf-8"?>
<!-- Generator: Adobe Illustrator 25.3.0, SVG Export Plug-In . SVG Version: 6.00 Build 0)  -->
<svg version="1.1" xmlns="http://www.w3.org/2000/svg" xmlns:xlink="http://www.w3.org/1999/xlink" x="0px" y="0px"
	 viewBox="0 0 500 400" style="enable-background:new 0 0 500 400;" xml:space="preserve">
<style type="text/css">
	.st0{fill:none;}
	.st1{display:none;}
	.st2{display:inline;}
	.st3{fill:#2477BC;}
	.st4{fill:#F7F7F9;}
	.st5{fill:#9C9B9B;}
	.st6{fill:url(#SVGID_1_);}
	.st7{fill:url(#SVGID_2_);}
	.st8{fill:url(#SVGID_3_);}
	.st9{fill:url(#SVGID_4_);}
	.st10{fill:url(#SVGID_5_);}
	.st11{fill:url(#SVGID_6_);}
	.st12{fill:url(#SVGID_7_);}
	.st13{fill:#FFFFFF;}
	.st14{fill:#021527;}
</style>
<g id="Layer_15">
</g>
<g id="Layer_4">
</g>
<g id="Layer_1">
</g>
<g id="Layer_2">
</g>
<g id="Layer_3">
</g>
<g id="Layer_5">
</g>
<g id="Layer_6">
</g>
<g id="Layer_7">
</g>
<g id="Layer_8">
</g>
<g id="Layer_9">
	<g>
		<g>
			<g>
				<path class="st5" d="M403.4,144.5H248.2v2.6h155.3c8.1,0,14.7,6.6,14.7,14.6v75.9c0,8.1-6.6,14.6-14.7,14.6H248.2v2.6h155.3
					c9.5,0,17.3-7.7,17.3-17.2v-75.9C420.7,152.2,413,144.5,403.4,144.5z"/>
			</g>
			<g>
				<linearGradient id="SVGID_1_" gradientUnits="userSpaceOnUse" x1="424.4192" y1="210.9843" x2="286.9655" y2="196.1855">
					<stop  offset="0" style="stop-color:#808080"/>
					<stop  offset="0.503" style="stop-color:#FFFFFF"/>
					<stop  offset="0.576" style="stop-color:#F4F4F4"/>
					<stop  offset="0.7026" style="stop-color:#D8D8D8"/>
					<stop  offset="0.8666" style="stop-color:#AAAAAA"/>
					<stop  offset="1" style="stop-color:#808080"/>
				</linearGradient>
				<path class="st6" d="M402.4,145.2H248.2v2.6h154.3c8.1,0,14.7,6.6,14.7,14.6v75.9c0,8.1-6.6,14.6-14.7,14.6H248.2v2.6h154.3
					c9.5,0,17.3-7.7,17.3-17.2v-75.9C419.7,152.9,412,145.2,402.4,145.2z"/>
			</g>
		</g>
		<g>
			<g>
				<g>
					
						<linearGradient id="SVGID_2_" gradientUnits="userSpaceOnUse" x1="152.6729" y1="200" x2="376.4713" y2="200" gradientTransform="matrix(0.9385 0 0 1 -78.7675 0)">
						<stop  offset="0.1091" style="stop-color:#FFFFFF"/>
						<stop  offset="0.1873" style="stop-color:#F9F9F9"/>
						<stop  offset="0.2894" style="stop-color:#E9E9E9"/>
						<stop  offset="0.404" style="stop-color:#CECECE"/>
						<stop  offset="0.497" style="stop-color:#B3B3B3"/>
						<stop  offset="0.503" style="stop-color:#FFFFFF"/>
						<stop  offset="0.576" style="stop-color:#F4F4F4"/>
						<stop  offset="0.7026" style="stop-color:#D8D8D8"/>
						<stop  offset="0.8666" style="stop-color:#AAAAAA"/>
						<stop  offset="1" style="stop-color:#808080"/>
					</linearGradient>
					<path class="st7" d="M266.4,239.9c0,8.6-6.6,15.6-14.7,15.6H94c-8.1,0-14.7-7-14.7-15.6v-79.8c0-8.6,6.6-15.6,14.7-15.6h157.8
						c8.1,0,14.7,7,14.7,15.6V239.9z"/>
					
						<linearGradient id="SVGID_3_" gradientUnits="userSpaceOnUse" x1="336.0874" y1="113.7752" x2="194.2819" y2="293.623" gradientTransform="matrix(0.9385 0 0 1 -78.7675 0)">
						<stop  offset="0.1818" style="stop-color:#FFFFFF"/>
						<stop  offset="0.4606" style="stop-color:#737373"/>
						<stop  offset="0.6788" style="stop-color:#F2F2F2"/>
						<stop  offset="0.9565" style="stop-color:#FDFDFD"/>
						<stop  offset="1" style="stop-color:#FFFFFF"/>
					</linearGradient>
					<path class="st8" d="M94,255.1c-7.9,0-14.3-6.8-14.3-15.2v-79.8c0-8.4,6.4-15.2,14.3-15.2h157.8c7.9,0,14.3,6.8,14.3,15.2v79.8
						c0,8.4-6.4,15.2-14.3,15.2H94z"/>
					
						<linearGradient id="SVGID_4_" gradientUnits="userSpaceOnUse" x1="191.7402" y1="120.9392" x2="334.5107" y2="268.7571" gradientTransform="matrix(0.9385 0 0 1 -78.7675 0)">
						<stop  offset="0.1818" style="stop-color:#FFFFFF"/>
						<stop  offset="0.4606" style="stop-color:#A6A6A6"/>
						<stop  offset="0.6788" style="stop-color:#F2F2F2"/>
						<stop  offset="0.9565" style="stop-color:#FDFDFD"/>
						<stop  offset="1" style="stop-color:#FFFFFF"/>
					</linearGradient>
					<path class="st9" d="M94,248.9c-4.5,0-8.1-4.1-8.1-9v-79.8c0-5,3.6-9,8.1-9h157.8c4.5,0,8.1,4.1,8.1,9v79.8c0,5-3.6,9-8.1,9H94
						z"/>
					
						<radialGradient id="SVGID_5_" cx="271.8779" cy="184.6494" r="139.7125" gradientTransform="matrix(0.9385 0 0 1 -78.7675 0)" gradientUnits="userSpaceOnUse">
						<stop  offset="0" style="stop-color:#063868"/>
						<stop  offset="0.6417" style="stop-color:#021222"/>
						<stop  offset="1" style="stop-color:#000000"/>
					</radialGradient>
					<path class="st10" d="M94,253.5c-7,0-12.7-6.1-12.7-13.6v-79.8c0-7.5,5.7-13.6,12.7-13.6h157.8c7,0,12.7,6.1,12.7,13.6v79.8
						c0,7.5-5.7,13.6-12.7,13.6H94z"/>
					
						<radialGradient id="SVGID_6_" cx="266.6382" cy="250.8594" r="93.5887" gradientTransform="matrix(0.9385 0 0 1 -78.7675 0)" gradientUnits="userSpaceOnUse">
						<stop  offset="0" style="stop-color:#063868"/>
						<stop  offset="1" style="stop-color:#063868;stop-opacity:0"/>
					</radialGradient>
					<path class="st11" d="M94,253.3c-6.9,0-12.4-6-12.4-13.4v-79.8c0-7.4,5.6-13.4,12.4-13.4h157.8c6.9,0,12.4,6,12.4,13.4v79.8
						c0,7.4-5.6,13.4-12.4,13.4H94z"/>
					
						<radialGradient id="SVGID_7_" cx="237.2017" cy="184.7551" r="128.0398" fx="181.9406" fy="185.1162" gradientTransform="matrix(0.3847 0.9121 -1.5145 0.7253 332.4066 -165.6018)" gradientUnits="userSpaceOnUse">
						<stop  offset="0" style="stop-color:#FFFFFF;stop-opacity:0"/>
						<stop  offset="0.5273" style="stop-color:#FFFFFF;stop-opacity:0.14"/>
						<stop  offset="0.5273" style="stop-color:#FFFFFF;stop-opacity:0"/>
					</radialGradient>
					<path class="st12" d="M94,253.3c-6.9,0-12.4-6-12.4-13.4v-79.8c0-7.4,5.6-13.4,12.4-13.4h157.8c6.9,0,12.4,6,12.4,13.4v79.8
						c0,7.4-5.6,13.4-12.4,13.4H94z"/>
				</g>
			</g>
			<g>
				<path class="st13" d="M166.6,236.8h-17.5l-9.8-38.1c-0.4-1.4-1-4.2-1.9-8.4c-0.9-4.3-1.4-7.1-1.5-8.6c-0.2,1.8-0.7,4.7-1.5,8.6
					c-0.8,4-1.4,6.8-1.8,8.5l-9.8,38h-17.5l-18.5-72.6h15.1l9.3,39.6c1.6,7.3,2.8,13.7,3.5,19c0.2-1.9,0.7-4.8,1.4-8.8s1.4-7,2-9.2
					l10.6-40.7h14.5l10.6,40.7c0.5,1.8,1,4.6,1.7,8.3c0.7,3.7,1.2,7,1.6,9.6c0.3-2.6,0.9-5.8,1.6-9.7c0.7-3.9,1.4-7,2-9.4l9.2-39.6
					h15.1L166.6,236.8z"/>
				<path class="st13" d="M212.1,237.8c-8.9,0-15.9-2.5-21-7.4c-5-4.9-7.5-11.9-7.5-21c0-9.3,2.3-16.5,7-21.6
					c4.7-5.1,11.1-7.6,19.3-7.6c7.8,0,14,2.2,18.3,6.7c4.4,4.5,6.6,10.6,6.6,18.5v7.3h-35.8c0.2,4.3,1.4,7.7,3.8,10.1
					c2.4,2.4,5.7,3.6,10,3.6c3.3,0,6.5-0.3,9.5-1s6.1-1.8,9.3-3.3v11.7c-2.6,1.3-5.5,2.3-8.5,3C220.1,237.5,216.4,237.8,212.1,237.8
					z M209.9,191.1c-3.2,0-5.7,1-7.5,3.1c-1.8,2-2.9,4.9-3.1,8.7h21.3c-0.1-3.7-1-6.6-2.9-8.7C215.7,192.1,213.1,191.1,209.9,191.1z
					"/>
				<path class="st13" d="M240.3,167c0-4.9,2.7-7.4,8.2-7.4s8.2,2.5,8.2,7.4c0,2.4-0.7,4.2-2.1,5.5c-1.4,1.3-3.4,2-6.2,2
					C243,174.4,240.3,171.9,240.3,167z M256.1,236.8h-15.1v-55.5h15.1V236.8z"/>
				<path class="st14" d="M303.6,196.1h28.8v37.6c-4.7,1.5-9.1,2.6-13.2,3.2c-4.1,0.6-8.3,0.9-12.6,0.9c-11,0-19.3-3.2-25.1-9.7
					c-5.8-6.4-8.7-15.7-8.7-27.7c0-11.7,3.4-20.9,10.1-27.4c6.7-6.6,16-9.8,27.9-9.8c7.4,0,14.6,1.5,21.5,4.5l-5.1,12.3
					c-5.3-2.6-10.8-4-16.5-4c-6.7,0-12,2.2-16,6.7c-4,4.5-6,10.5-6,18c0,7.9,1.6,13.9,4.8,18c3.2,4.2,7.9,6.2,14.1,6.2
					c3.2,0,6.5-0.3,9.8-1v-15.1h-13.8V196.1z"/>
				<path class="st14" d="M409.5,200.4c0,12-3,21.3-8.9,27.7c-6,6.5-14.5,9.7-25.6,9.7c-11.1,0-19.7-3.2-25.6-9.7
					c-6-6.5-8.9-15.7-8.9-27.8s3-21.3,9-27.7c6-6.4,14.5-9.6,25.7-9.6c11.2,0,19.7,3.2,25.6,9.6
					C406.5,179.2,409.5,188.4,409.5,200.4z M356.5,200.4c0,8.1,1.5,14.2,4.6,18.3c3.1,4.1,7.7,6.2,13.8,6.2
					c12.3,0,18.4-8.2,18.4-24.5c0-16.4-6.1-24.5-18.3-24.5c-6.1,0-10.7,2.1-13.9,6.2C358,186.2,356.5,192.3,356.5,200.4z"/>
			</g>
		</g>
	</g>
</g>
<g id="Layer_10">
</g>
<g id="Layer_11">
</g>
<g id="Layer_12">
</g>
<g id="Layer_13">
</g>
<g id="Layer_14">
</g>
<g id="Layer_16">
</g>
<g id="Layer_17">
</g>
</svg>
